{"title":"Mr&amp;Mrs Smith(2005)MP-4[DaScubaDude]","uid":13048062,"size":1201817172,"categoryP":"video","categoryS":"movies","magnet":"?xt=urn:btih:361a3c6e7cf2e0adf41603ab7dd833161d33cb2f&amp;dn=Mr%26amp%3BMrs+Smith%282005%29MP-4%5BDaScubaDude%5D&amp;tr=udp%3A%2F%2Ftracker.leechers-paradise.org%3A6969&amp;tr=udp%3A%2F%2Fzer0day.ch%3A1337&amp;tr=udp%3A%2F%2Fopen.demonii.com%3A1337&amp;tr=udp%3A%2F%2Ftracker.coppersurfer.tk%3A6969&amp;tr=udp%3A%2F%2Fexodus.desync.com%3A6969","seeders":0,"leechers":1,"uploader":"dascuba","files":1,"time":1450584807,"description":"A bored married couple is surprised to learn that they are both assassins hired by competing agencies to kill each other.\r\nDirector: Doug Liman\r\nWriter: Simon Kinberg\r\nStars: Brad Pitt, Angelina Jolie, Adam Brody\r\n\r\nGeneral\r\nComplete name                            :Mr&amp;Mrs Smith(2005)MR_MRS_SMITH_WS_Title1.mp4\r\nFormat                                   : MPEG-4\r\nFormat profile                           : Base Media\r\nCodec ID                                 : isom\r\nFile size                                : 1.12 GiB\r\nDuration                                 : 1h 59mn\r\nOverall bit rate                         : 1 337 Kbps\r\nMovie name                               : MR_MRS_SMITH_WS\r\nGenre                                    : Action\r\nWriting application                      : Lavf54.6.100\r\n\r\nVideo\r\nID                                       : 1\r\nFormat                                   : AVC\r\nFormat/Info                              : Advanced Video Codec\r\nFormat profile                           :   \r\nFormat settings, CABAC                   : No\r\nFormat settings, ReFrames                : 6 frames\r\nCodec ID                                 : avc1\r\nCodec ID/Info                            : Advanced Video Coding\r\nDuration                                 : 1h 59mn\r\nBit rate                                 : 1 202 Kbps\r\nWidth                                    : 720 pixels\r\nHeight                                   : 404 pixels\r\nDisplay aspect ratio                     : 16:9\r\nFrame rate mode                          : Constant\r\nFrame rate                               : 29.970 fps\r\nColor space                              : YUV\r\nChroma subsampling                       : 4:2:0\r\nBit depth                                : 8 bits\r\nScan type                                : Progressive\r\nBits/(Pixel*Frame)                       : 0.138\r\nStream size                              : 1.01 GiB (90%)\r\n\r\nAudio\r\nID                                       : 2\r\nFormat                                   : AAC\r\nFormat/Info                              : Advanced Audio Codec\r\nFormat profile                           : LC\r\nCodec ID                                 : 40\r\nDuration                                 : 1h 59mn\r\nBit rate mode                            : Constant\r\nBit rate                                 : 128 Kbps\r\nChannel(s)                               : 2 channels\r\nChannel positions                        : Front: L R\r\nSampling rate                            : 44.1 KHz\r\nCompression mode                         : Lossy\r\nStream size                              : 110 MiB (10%)","torrent":{"xt":"urn:btih:361a3c6e7cf2e0adf41603ab7dd833161d33cb2f","amp;dn":"Mr%26amp%3BMrs+Smith%282005%29MP-4%5BDaScubaDude%5D","amp;tr":["udp%3A%2F%2Ftracker.leechers-paradise.org%3A6969","udp%3A%2F%2Fzer0day.ch%3A1337","udp%3A%2F%2Fopen.demonii.com%3A1337","udp%3A%2F%2Ftracker.coppersurfer.tk%3A6969","udp%3A%2F%2Fexodus.desync.com%3A6969"],"infoHash":"361a3c6e7cf2e0adf41603ab7dd833161d33cb2f","infoHashBuffer":{"type":"Buffer","data":[54,26,60,110,124,242,224,173,244,22,3,171,125,216,51,22,29,51,203,47]},"announce":[],"urlList":[]}}